<svg xmlns="http://www.w3.org/2000/svg" width="160" height="160" viewBox="0 0 160 160">
  <defs>
    <style>
      .cls-1 {
        fill: #a8ead5;
      }
    </style>
  </defs>
  <path id="_.100" data-name=".100" class="cls-1" d="M-1245,261a79.5,79.5,0,0,1-31.14-6.287,79.734,79.734,0,0,1-25.429-17.145,79.738,79.738,0,0,1-17.145-25.429A79.5,79.5,0,0,1-1325,181a79.5,79.5,0,0,1,6.287-31.14,79.739,79.739,0,0,1,17.145-25.429,79.734,79.734,0,0,1,25.429-17.145A79.5,79.5,0,0,1-1245,101a79.5,79.5,0,0,1,31.139,6.287,79.735,79.735,0,0,1,25.429,17.145,79.73,79.73,0,0,1,17.145,25.429A79.5,79.5,0,0,1-1165,181a79.5,79.5,0,0,1-6.287,31.139,79.73,79.73,0,0,1-17.145,25.429,79.734,79.734,0,0,1-25.429,17.145A79.5,79.5,0,0,1-1245,261Zm0-144a64.073,64.073,0,0,0-64,64,64.073,64.073,0,0,0,64,64,64.072,64.072,0,0,0,64-64A64.073,64.073,0,0,0-1245,117Z" transform="translate(1325 -101)"/>
</svg>
