<svg xmlns="http://www.w3.org/2000/svg" width="160" height="160" viewBox="0 0 160 160">
  <defs>
    <style>
      .cls-1 {
        fill: #a8ead5;
      }

      .cls-2 {
        fill: rgba(168,234,213,0.4);
      }
    </style>
  </defs>
  <g id="_.80" data-name=".80" transform="translate(0 0)">
    <path id="Subtraction_4" data-name="Subtraction 4" class="cls-1" d="M-1245,261a79.5,79.5,0,0,1-31.141-6.287,79.75,79.75,0,0,1-25.429-17.145,79.746,79.746,0,0,1-17.145-25.428A79.51,79.51,0,0,1-1325,181a79.509,79.509,0,0,1,6.287-31.139,79.743,79.743,0,0,1,17.145-25.429,79.749,79.749,0,0,1,25.429-17.145A79.509,79.509,0,0,1-1245,101v16a63.568,63.568,0,0,0-45.234,18.767A63.566,63.566,0,0,0-1309,181a64.073,64.073,0,0,0,64,64,64.072,64.072,0,0,0,64-64,63.365,63.365,0,0,0-13.12-38.782L-1182,131.682a79.782,79.782,0,0,1,10.711,18.179A79.491,79.491,0,0,1-1165,181a79.491,79.491,0,0,1-6.287,31.14,79.731,79.731,0,0,1-17.144,25.428,79.74,79.74,0,0,1-25.43,17.145A79.481,79.481,0,0,1-1245,261Z" transform="translate(1325.001 -101)"/>
    <path id="Subtraction_6" data-name="Subtraction 6" class="cls-2" d="M-1245,261a79.5,79.5,0,0,1-31.14-6.287,79.734,79.734,0,0,1-25.429-17.145,79.738,79.738,0,0,1-17.145-25.429A79.5,79.5,0,0,1-1325,181a79.5,79.5,0,0,1,6.287-31.14,79.739,79.739,0,0,1,17.145-25.429,79.734,79.734,0,0,1,25.429-17.145A79.5,79.5,0,0,1-1245,101a79.5,79.5,0,0,1,31.139,6.287,79.735,79.735,0,0,1,25.429,17.145,79.73,79.73,0,0,1,17.145,25.429A79.5,79.5,0,0,1-1165,181a79.5,79.5,0,0,1-6.287,31.139,79.73,79.73,0,0,1-17.145,25.429,79.734,79.734,0,0,1-25.429,17.145A79.5,79.5,0,0,1-1245,261Zm0-144a64.073,64.073,0,0,0-64,64,64.073,64.073,0,0,0,64,64,64.072,64.072,0,0,0,64-64A64.073,64.073,0,0,0-1245,117Z" transform="translate(1325.001 -101)"/>
  </g>
</svg>
