<svg xmlns="http://www.w3.org/2000/svg" width="2151.709" height="365.747" viewBox="0 0 2151.709 365.747">
  <defs>
    <style>
      .cls-1 {
        fill: rgba(62,189,198,0.26);
      }
    </style>
  </defs>
  <path id="_.end2" data-name=".end2" class="cls-1" d="M2125.7,1518.93c-1.04.859-2109.026-74.719-2109.026-74.719s-25.408-54.471-23.168-73.64c35.41-12.87,72.07,13.729,109.52,12.639,41.33-1.19,82.64,1.24,123.97,1.29,102.36.13,204.54,6.4,306.78,10.59,46.742,1.921,177.751,4.386,315.631-16.774,154.734-23.746,320.007-72.294,423.924-88.459,156.23-24.3,320.034-27.056,383.885-23.869,210.169,10.492,456.731,65.134,475.384,68.9C2139.973,1336.381,2125.7,1518.93,2125.7,1518.93Z" transform="translate(-59.577 -1151.456) rotate(-3)"/>
</svg>
