<svg xmlns="http://www.w3.org/2000/svg" width="1177.955" height="463.606" viewBox="0 0 1177.955 463.606">
  <defs>
    <style>
      .cls-1 {
        fill: #bde4f3;
        fill-rule: evenodd;
      }
    </style>
  </defs>
  <path id="_.home2" data-name=".home2" class="cls-1" d="M392.8,83.969c-45.4,4.03-88.936,29.157-124.349,71.771-10.592,12.747-34.4,46.2-37.989,53.375-.277.549-1.232,2.123-2.13,3.495s-7.471,11.551-14.618,22.62c-30.658,47.506-49.439,68.517-78.56,87.884-41.649,27.7-697.961,34.4-733.388,16.572-1.29-.649,0,110.8,0,110.8S-282.32,541.913-58.11,546.635c67.773,1.428,143.117-15.977,193.266-48.6,52.632-34.239,78.371-84.2,86.282-97.823,6.246-10.76,32.968-63.733,32.968-65.357,0-1.685,27.084-55.121,34.8-68.668,46.479-81.577,96.244-119.133,153.9-118.357,6.038.079,39.687-.059,74-.006l62.037-.01-5.987-3.34c-3.29-1.835-10.7-5.851-16.46-8.914s-12.722-6.8-15.466-8.282c-52.2-28.327-85.377-40.19-121.217-43.34-12.607-1.106-14.413-1.106-27.217.032" transform="translate(598.805 -83.111)"/>
</svg>
