<svg xmlns="http://www.w3.org/2000/svg" width="97.464" height="110.769" viewBox="0 0 97.464 110.769">
  <defs>
    <style>
      .cls-1 {
        fill: #d4b830;
      }

      .cls-2 {
        fill: rgba(235,235,235,0);
      }

      .cls-2, .cls-3 {
        opacity: 0.986;
      }

      .cls-3 {
        fill: rgba(235,235,235,0.92);
      }

      .cls-4 {
        fill: #fdd83c;
      }
    </style>
  </defs>
  <g id="_.javascr" data-name=".javascr" transform="translate(5 -113.4)">
    <path id="path5113" class="cls-1" d="M4.047,212.993-5,113.4l97.464.038-8.971,99.479L43.656,224.169Zm72.11-5.436,7.565-85.3H43.808l.3,94.081ZM40.083,134.763H30.39l-.114,51.051-18.816-5.132.038,11.67,28.585,7.717V134.763Z"/>
    <path id="path5159" class="cls-2" d="M64.1,234.389c-1.254-.38-7.45-2.053-13.761-3.763L38.9,227.547v-5.74c0-5.626,0-5.74.57-5.55.3.114,4.485,1.254,9.275,2.585l8.7,2.395.076-25.468L57.6,170.3h9.5v32.387c0,25.735-.076,32.387-.342,32.387-.19-.038-1.406-.342-2.661-.684Z" transform="translate(-27.212 -35.271)"/>
    <path id="path5157" class="cls-3" d="M38.338,227.251l-.038-11.67s12.012,3.383,18.816,5.132L57.23,169.7h9.693v65.268Z" transform="translate(-26.841 -34.899)"/>
    <path id="path5117" class="cls-4" d="M123.4,136.6h39.913l-7.564,85.3L123.4,230.681Zm30.3,71.008,2.623-31.893-19.386,2.167v-17.03l20.679-.076.836-11.632-31.208.152.418,42.346,18.854-3.231-.266,9.427-19.006,5.056.19,11.556,26.267-6.842Z" transform="translate(-79.592 -14.381)"/>
  </g>
</svg>
