<svg xmlns="http://www.w3.org/2000/svg" width="13" height="13.014" viewBox="0 0 13 13.014">
  <defs>
    <style>
      .cls-1 {
        fill: #a8ead5;
      }
    </style>
  </defs>
  <g id="_.phoneico" data-name=".phoneico" transform="translate(-557 -254)">
    <path id="Path_5" data-name="Path 5" class="cls-1" d="M15.386,4.6,14.233,3.448a1.523,1.523,0,0,0-2.305.178L10.806,5.149A1.523,1.523,0,0,0,10.582,6.5l.066.193c.137.452.315,1.016.427,1.391a.508.508,0,0,1-.025.355A6.317,6.317,0,0,1,9.993,9.963a.508.508,0,0,0,.716.721A7.18,7.18,0,0,0,11.958,8.9a1.483,1.483,0,0,0,.086-1.1c-.107-.366-.289-.945-.432-1.4l-.061-.2a.508.508,0,0,1,.1-.442L12.771,4.24a.508.508,0,0,1,.767-.061l.34.34L12.862,6.094a.508.508,0,0,0,.853.553l.9-1.391.081.076a1.315,1.315,0,0,1,.345.955c0,.894-.6,2.539-3.417,5.3-2.95,2.894-5.291,4.062-6.261,3.082L4.179,13.5a.5.5,0,0,1,.061-.767l1.523-1.122a.508.508,0,0,1,.447-.076l.96.3L6.088,12.6a.509.509,0,0,0,.584.833L8.6,12.081a.5.5,0,0,0-.142-.894h0l-1.93-.62a1.523,1.523,0,0,0-1.351.223L3.656,11.913a1.523,1.523,0,0,0-.178,2.305l1.153,1.158a2.189,2.189,0,0,0,1.584.64c1.28,0,3.209-.889,6.094-3.717,2.458-2.412,3.712-4.438,3.722-6.022A2.265,2.265,0,0,0,15.386,4.6Z" transform="translate(553.967 250.997)"/>
  </g>
</svg>
