<svg xmlns="http://www.w3.org/2000/svg" width="12.692" height="15" viewBox="0 0 12.692 15">
  <defs>
    <style>
      .cls-1 {
        fill: #a8ead5;
      }
    </style>
  </defs>
  <g id="_.aboutico" data-name=".aboutico" transform="translate(-39 -10.7)">
    <path id="Path_6" data-name="Path 6" class="cls-1" d="M15.812,16.057a.577.577,0,1,0-.813.819,5.192,5.192,0,0,1,1.54,3.692c0,.7-2.025,1.731-5.192,1.731s-5.192-1.027-5.192-1.731a5.192,5.192,0,0,1,1.517-3.675.575.575,0,0,0-.813-.813A6.3,6.3,0,0,0,5,20.569c0,1.875,3.271,2.885,6.346,2.885s6.346-1.01,6.346-2.885a6.312,6.312,0,0,0-1.881-4.512Z" transform="translate(34 2.247)"/>
    <path id="Path_7" data-name="Path 7" class="cls-1" d="M13.038,11.077A4.038,4.038,0,1,0,9,7.038,4.038,4.038,0,0,0,13.038,11.077Zm0-6.923a2.885,2.885,0,1,1-2.885,2.885A2.885,2.885,0,0,1,13.038,4.154Z" transform="translate(32.308 7.7)"/>
  </g>
</svg>
