<svg xmlns="http://www.w3.org/2000/svg" xmlns:xlink="http://www.w3.org/1999/xlink" width="2694.914" height="365.747" viewBox="0 0 2694.914 365.747">
  <defs>
    <style>
      .cls-1 {
        fill: rgba(62,189,198,0.26);
      }

      .cls-2 {
        fill-rule: evenodd;
        fill: url(#linear-gradient);
      }
    </style>
    <linearGradient id="linear-gradient" x1="0.5" x2="0.5" y2="1" gradientUnits="objectBoundingBox">
      <stop offset="0" stop-color="#3ebdc6"/>
      <stop offset="1" stop-color="#0096d1"/>
    </linearGradient>
  </defs>
  <g id="Group_42" data-name="Group 42" transform="translate(572.83 -1178.294)">
    <path id="_.end2" data-name=".end2" class="cls-1" d="M2125.7,1518.93c-1.04.859-2109.026-74.719-2109.026-74.719s-25.408-54.471-23.168-73.64c35.41-12.87,72.07,13.729,109.52,12.639,41.33-1.19,82.64,1.24,123.97,1.29,102.36.13,204.54,6.4,306.78,10.59,46.742,1.921,177.751,4.386,315.631-16.774,154.734-23.746,320.007-72.294,423.924-88.459,156.23-24.3,320.034-27.056,383.885-23.869,210.169,10.492,456.731,65.134,475.384,68.9C2139.973,1336.381,2125.7,1518.93,2125.7,1518.93Z" transform="translate(-89.202 26.838) rotate(-3)"/>
    <path id="_.end" data-name=".end" class="cls-2" d="M2115.753,361.7c-24.267-6.222-150.831-37.273-296.116-41.923-78.907-2.526-264.552-9.377-417.546,8.241-188.35,21.689-343.365,69.781-384.378,79.118-174.557,39.74-259.795,50.872-400.054,52.229-61.889.6-70.108.392-184.937-4.716-35.456-1.576-110.422-7-179.913-12.389C128.59,432.622-13.5,421.67-134.658,422.616-354.64,424.335-570,454.646-570,454.646v92.016H2115.753V361.7" transform="translate(-2.83 932.178)"/>
  </g>
</svg>
