<svg xmlns="http://www.w3.org/2000/svg" width="12.692" height="20.652" viewBox="0 0 12.692 20.652">
  <defs>
    <style>
      .cls-1 {
        fill: #a8ead5;
      }

      .cls-2 {
        fill: none;
      }

      .cls-3, .cls-4 {
        stroke: none;
      }

      .cls-4 {
        fill: #a8ead5;
      }
    </style>
  </defs>
  <g id="_.educationico" data-name=".educationico" transform="translate(-39 -8.3)">
    <path id="Path_6" data-name="Path 6" class="cls-1" d="M15.812,16.057a.577.577,0,1,0-.813.819,5.192,5.192,0,0,1,1.54,3.692c0,.7-2.025,1.731-5.192,1.731s-5.192-1.027-5.192-1.731a5.192,5.192,0,0,1,1.517-3.675.575.575,0,0,0-.813-.813A6.3,6.3,0,0,0,5,20.569c0,1.875,3.271,2.885,6.346,2.885s6.346-1.01,6.346-2.885a6.312,6.312,0,0,0-1.881-4.512Z" transform="translate(34 5.498)"/>
    <path id="Path_7" data-name="Path 7" class="cls-1" d="M13.038,11.077a4.038,4.038,0,0,0,4.038-4.038,4.209,4.209,0,0,0-1.183-2.856l-2.7,2.2-3.006-2.2A3.856,3.856,0,0,0,9,7.038,4.038,4.038,0,0,0,13.038,11.077Zm1.916-6.2a2.722,2.722,0,0,1,.969,2.157,2.885,2.885,0,0,1-5.769,0,2.755,2.755,0,0,1,1-2.157L13.189,6.3Z" transform="translate(32.308 10.952)"/>
    <g id="Path_11" data-name="Path 11" class="cls-2" transform="translate(45.414 9.045) rotate(45)">
      <path class="cls-3" d="M1.752.881,6.725-.479a.9.9,0,0,1,.9.9l-.917,5.3a.9.9,0,0,1-.9.9L.327,7.723a.9.9,0,0,1-.9-.9L.85,1.782A.9.9,0,0,1,1.752.881Z"/>
      <path class="cls-4" d="M 6.581543922424316 0.5969667434692383 L 2.015800952911377 1.845137596130371 L 1.886330604553223 1.880537509918213 L 1.850400924682617 1.880537509918213 L 1.850400924682617 1.920957565307617 L 1.81264066696167 2.054437637329102 L 0.5080251693725586 6.66635274887085 L 5.611180782318115 5.643477439880371 L 5.708480834960938 5.623977661132813 L 5.711548805236816 5.623977661132813 L 5.724050521850586 5.55174732208252 L 6.581543922424316 0.5969667434692383 M 6.724860668182373 -0.4789023399353027 C 7.222850799560547 -0.4789023399353027 7.626550674438477 -0.07520246505737305 7.626550674438477 0.4227876663208008 L 6.709400653839111 5.722277641296387 C 6.709400653839111 6.220277786254883 6.305700778961182 6.623977661132813 5.807710647583008 6.623977661132813 L 0.3267607688903809 7.722577571868896 C -0.171229362487793 7.722577571868896 -0.5749292373657227 7.318887710571289 -0.5749292373657227 6.820887565612793 L 0.8504009246826172 1.782237529754639 C 0.8504009246826172 1.284247398376465 1.254110813140869 0.8805375099182129 1.752100944519043 0.8805375099182129 L 6.724860668182373 -0.4789023399353027 Z"/>
    </g>
  </g>
</svg>
