<svg xmlns="http://www.w3.org/2000/svg" width="15" height="14.7" viewBox="0 0 15 14.7">
  <defs>
    <style>
      .cls-1 {
        fill: #a8ead5;
      }
    </style>
  </defs>
  <path id="_.githubico" data-name=".githubico" class="cls-1" d="M10.464,3A7.462,7.462,0,0,0,8.478,17.655a.574.574,0,1,0,.3-1.1,6.314,6.314,0,1,1,4.018-.23,9.1,9.1,0,0,0-.172-2.25,3.6,3.6,0,0,0,2.819-3.611,3.685,3.685,0,0,0-.6-2.222,4.07,4.07,0,0,0-.23-1.929.574.574,0,0,0-.631-.385,4.592,4.592,0,0,0-1.935.735,6.515,6.515,0,0,0-1.584-.218,7.514,7.514,0,0,0-1.722.247A3.3,3.3,0,0,0,6.8,6.013a.574.574,0,0,0-.574.379,4.053,4.053,0,0,0-.212,1.831,4.1,4.1,0,0,0-.6,2.239,3.823,3.823,0,0,0,2.87,3.6,4.265,4.265,0,0,0-.086.453c-.574.034-.907-.316-1.332-.85a1.98,1.98,0,0,0-1.114-.878A.571.571,0,0,0,5.5,13.906c.092,0,.316.3.442.465a2.721,2.721,0,0,0,2.153,1.292,2.773,2.773,0,0,0,.746-.1h0a.574.574,0,0,0,.166-.08h0a.413.413,0,0,0,.1-.121.2.2,0,0,0,.046-.052.488.488,0,0,0,.034-.1.873.873,0,0,0,.034-.115h0A2.359,2.359,0,0,1,9.488,14a.574.574,0,0,0-.436-.947A2.641,2.641,0,0,1,6.56,10.462a2.778,2.778,0,0,1,.5-1.722A.574.574,0,0,0,7.2,8.264,2.87,2.87,0,0,1,7.2,7.2a2.061,2.061,0,0,1,1,.528.574.574,0,0,0,.574.132,7.17,7.17,0,0,1,1.693-.27,5.689,5.689,0,0,1,1.521.247.574.574,0,0,0,.574-.1,2.87,2.87,0,0,1,1.148-.574,2.359,2.359,0,0,1,0,1.1.6.6,0,0,0,.184.574,2.3,2.3,0,0,1,.408,1.63,2.463,2.463,0,0,1-2.532,2.56.576.576,0,0,0-.379,1.01c.339.293.287,2.3.27,3.077a.568.568,0,0,0,.574.586.614.614,0,0,0,.144,0A7.462,7.462,0,0,0,10.464,3Z" transform="translate(-3.003 -2.999)"/>
</svg>
