<svg xmlns="http://www.w3.org/2000/svg" xmlns:xlink="http://www.w3.org/1999/xlink" width="2730.047" height="793.906" viewBox="0 0 2730.047 793.906">
  <defs>
    <style>
      .cls-1 {
        fill: #bde4f3;
      }

      .cls-1, .cls-2 {
        fill-rule: evenodd;
      }

      .cls-2 {
        fill: url(#linear-gradient);
      }

      .cls-3 {
        fill: #a8ead5;
        font-size: 211px;
        font-family: Montserrat-Medium, Montserrat;
        font-weight: 500;
        opacity: 0.3;
      }
    </style>
    <linearGradient id="linear-gradient" x1="0.897" y1="-0.039" x2="0.068" y2="0.461" gradientUnits="objectBoundingBox">
      <stop offset="0" stop-color="#3ebdc6"/>
      <stop offset="1" stop-color="#0096d1"/>
    </linearGradient>
  </defs>
  <g id="Group_41" data-name="Group 41" transform="translate(600.047 31)">
    <path id="_.home2" data-name=".home2" class="cls-1" d="M392.8,83.969c-45.4,4.03-88.936,29.157-124.349,71.771-10.592,12.747-34.4,46.2-37.989,53.375-.277.549-1.232,2.123-2.13,3.495s-7.471,11.551-14.618,22.62c-30.658,47.506-49.439,68.517-78.56,87.884-41.649,27.7-697.961,34.4-733.388,16.572-1.29-.649,0,110.8,0,110.8S-282.32,541.913-58.11,546.635c67.773,1.428,143.117-15.977,193.266-48.6,52.632-34.239,78.371-84.2,86.282-97.823,6.246-10.76,32.968-63.733,32.968-65.357,0-1.685,27.084-55.121,34.8-68.668,46.479-81.577,96.244-119.133,153.9-118.357,6.038.079,39.687-.059,74-.006l62.037-.01-5.987-3.34c-3.29-1.835-10.7-5.851-16.46-8.914s-12.722-6.8-15.466-8.282c-52.2-28.327-85.377-40.19-121.217-43.34-12.607-1.106-14.413-1.106-27.217.032" transform="translate(0 216.189)"/>
    <path id="_.home" data-name=".home" class="cls-2" d="M-600.047,557.975c16.563,8.45,222.893,63.562,408.1,61.86,79.19-.728,193.787-4.987,274.976-42.853,75.329-35.133,119.3-102.883,139.128-134.221,21.938-34.672,32.364-49.878,44.737-65.261,54.49-67.745,123.113-90.353,200.106-65.923,21.485,6.815,44.64,17.658,90.313,42.282L576.126,364H909.655l9.421-4.086q57.364-24.878,89.575-57.535c13.439-13.615,21.557-24.743,53.6-73.469,18.1-27.515,47.845-81.919,93.353-85.68,22.4-1.851,79.306,18.594,138.482,43.475,26.535,11.157,100.546,34.641,180.338,46.8,77.9,11.866,161.383,12.535,209.038,10.609,210.4-8.5,427.106-58.494,446.351-81.392l.182-83.25V0H-600V277.981" transform="translate(0 0.2)"/>
    <text id="CV" class="cls-3" transform="translate(439 173)"><tspan x="0" y="0">CV</tspan></text>
  </g>
</svg>
