<svg xmlns="http://www.w3.org/2000/svg" xmlns:xlink="http://www.w3.org/1999/xlink" width="2730.047" height="619.873" viewBox="0 0 2730.047 619.873">
  <defs>
    <style>
      .cls-1 {
        fill-rule: evenodd;
        fill: url(#linear-gradient);
      }
    </style>
    <linearGradient id="linear-gradient" x1="0.897" y1="-0.039" x2="0.068" y2="0.461" gradientUnits="objectBoundingBox">
      <stop offset="0" stop-color="#3ebdc6"/>
      <stop offset="1" stop-color="#0096d1"/>
    </linearGradient>
  </defs>
  <path id="_.home" data-name=".home" class="cls-1" d="M-600.047,557.975c16.563,8.45,222.893,63.562,408.1,61.86,79.19-.728,193.787-4.987,274.976-42.853,75.329-35.133,119.3-102.883,139.128-134.221,21.938-34.672,32.364-49.878,44.737-65.261,54.49-67.745,123.113-90.353,200.106-65.923,21.485,6.815,44.64,17.658,90.313,42.282L576.126,364H909.655l9.421-4.086q57.364-24.878,89.575-57.535c13.439-13.615,21.557-24.743,53.6-73.469,18.1-27.515,47.845-81.919,93.353-85.68,22.4-1.851,79.306,18.594,138.482,43.475,26.535,11.157,100.546,34.641,180.338,46.8,77.9,11.866,161.383,12.535,209.038,10.609,210.4-8.5,427.106-58.494,446.351-81.392l.182-83.25V0H-600V277.981" transform="translate(600.047)"/>
</svg>
