<svg xmlns="http://www.w3.org/2000/svg" width="15" height="15" viewBox="0 0 15 15">
  <defs>
    <style>
      .cls-1 {
        fill: #a8ead5;
      }
    </style>
  </defs>
  <g id="_.projectico" data-name=".projectico" transform="translate(-39 -11)">
    <path id="Path_9" data-name="Path 9" class="cls-1" d="M11.577,8.192h4.615a.577.577,0,0,0,.577-.577V3.577A.577.577,0,0,0,16.192,3H11.577A.577.577,0,0,0,11,3.577V7.615A.577.577,0,0,0,11.577,8.192Zm.577-4.038h3.462V7.038H12.154Z" transform="translate(32.615 8)"/>
    <path id="Path_10" data-name="Path 10" class="cls-1" d="M17.423,14H12.808a.577.577,0,0,0-.577.577v2.885H8.769v-.577a.577.577,0,1,0-1.154,0v1.154a.577.577,0,0,0,.577.577h4.615a.577.577,0,0,0,.577-.577V15.154h3.462V21.5H4.154V15.154H8.192a.577.577,0,0,0,0-1.154H3.577A.577.577,0,0,0,3,14.577v7.5a.577.577,0,0,0,.577.577H17.423A.577.577,0,0,0,18,22.077v-7.5A.577.577,0,0,0,17.423,14Z" transform="translate(36 3.346)"/>
  </g>
</svg>
